<?xml version="1.0" encoding="UTF-8"?><svg id="Layer_1" xmlns="http://www.w3.org/2000/svg" viewBox="0 0 565.37 406.53"><path d="M279.55,167.05l-52.63-117.32h-45.38v312.86l42.49,33.31H55.52l42.97-33.31V49.73h-45.87L0,167.05V9.66h279.55v157.4ZM154.02,202.3l-14-17.86-13.52,17.86,13.52,17.38,14-17.38ZM126.98,143.4l13.04,18.83,12.55-18.83-12.55-101.39-13.04,101.39ZM152.57,260.72l-12.55-18.83-13.04,18.83,13.04,102.36,12.55-102.36Z" fill="#3c2415"/><path d="M565.37,293.55c0,78.22-64.21,112.98-129.88,112.98-36.69,0-63.73-10.14-88.36-21.25l-36.21,21.25-1.45-169.95c36.69,96.08,84.49,126.02,124.57,126.02,29.93,0,54.56-22.21,54.56-56.01s-40.56-55.04-81.6-77.25c-45.87-24.62-93.18-53.11-93.18-122.15C313.82,34.76,368.38,0,435.49,0c36.21,0,60.35,10.62,78.22,21.24L545.09.48v143.88c-22.69-70.49-68.08-102.36-109.12-102.36-29.93,0-49.73,19.8-49.73,44.42,0,32.83,34.76,49.73,75.8,70.97,48.28,26.07,103.32,61.8,103.32,136.15ZM405.56,177.19l-9.17-20.28c-33.31-15.93-51.66-46.83-39.59-92.22-22.69,42.97-15.93,86.91,26.56,114.43l22.21-1.93ZM455.29,206.65l-8.21-20.76-22.69,2.9,9.17,20.76,21.73-2.9ZM496.81,216.3l-22.69,1.93,9.66,20.28c34.76,18.35,47.32,60.35,31.38,104.77,26.07-37.66,23.17-98.98-18.35-126.98Z" fill="#3c2415"/></svg>